<svg id="图层_1" data-name="图层 1" xmlns="http://www.w3.org/2000/svg" viewBox="0 0 62 59"><defs><style>.cls-1{fill:#fff;}</style></defs><rect class="cls-1" x="29" width="4" height="59" rx="1.46"/><path class="cls-1" d="M27,50H6.52A1.52,1.52,0,0,1,5,48.48v-33A1.52,1.52,0,0,1,6.52,14H27V10H6.52A5.53,5.53,0,0,0,1,15.52v33A5.53,5.53,0,0,0,6.52,54H27Z" transform="translate(-1 -3)"/><path class="cls-1" d="M37,50H57.48A1.52,1.52,0,0,0,59,48.48v-33A1.52,1.52,0,0,0,57.48,14H37V10H57.48A5.53,5.53,0,0,1,63,15.52v33A5.53,5.53,0,0,1,57.48,54H37Z" transform="translate(-1 -3)"/></svg>