<svg id="图层_1" data-name="图层 1" xmlns="http://www.w3.org/2000/svg" viewBox="0 0 59.99 60"><defs><style>.cls-1{fill:#fff;}</style></defs><polygon class="cls-1" points="5.84 6.48 7.72 12.64 15.89 16.01 2.32 19.65 5.84 6.48"/><path class="cls-1" d="M8,15.74l.11.39,1.75.72,1.83.75-.68.19-3.84,1L8,15.74m-.07-11A1.47,1.47,0,0,0,6.48,5.87L4.32,13.94,2.16,22a1.47,1.47,0,0,0,1.41,1.86A1.32,1.32,0,0,0,4,23.81L12,21.65l8.07-2.16a1.67,1.67,0,0,0,1-2.32l-9.75-4L8.94,5.21a1.46,1.46,0,0,0-1-.43Z" transform="translate(-2.01 -2)"/><path class="cls-1" d="M32.93,2A30,30,0,0,0,7.28,15h5.07A26,26,0,1,1,6,32.54L5.46,32H2.65L2,32.65A30,30,0,1,0,32.93,2Z" transform="translate(-2.01 -2)"/></svg>