<svg id="图层_1" data-name="图层 1" xmlns="http://www.w3.org/2000/svg" viewBox="0 0 64 64"><defs><style>.cls-1{fill:#fff;}</style></defs><polygon class="cls-1" points="46.05 18.01 54.22 14.64 56.1 8.48 59.62 21.65 46.05 18.01"/><path class="cls-1" d="M56,15.74l.82,3.08-3.84-1-.68-.19,1.84-.75,1.74-.72.12-.39m.07-11a1.45,1.45,0,0,0-1,.43l-2.43,7.94-9.76,4a1.67,1.67,0,0,0,1,2.32l8.07,2.16L60,23.81a1.31,1.31,0,0,0,.38.06A1.48,1.48,0,0,0,61.79,22l-2.16-8.07L57.47,5.87A1.47,1.47,0,0,0,56,4.78Z"/><path class="cls-1" d="M31,2A30,30,0,0,1,56.66,15H51.59a26,26,0,1,0,6.35,17.54l.54-.54H61.3l.64.65A30,30,0,1,1,31,2Z"/></svg>