<svg id="图层_1" data-name="图层 1" xmlns="http://www.w3.org/2000/svg" viewBox="0 0 59 62"><defs><style>.cls-1{fill:#fff;}</style></defs><rect class="cls-1" y="29" width="59" height="4" rx="1.46"/><path class="cls-1" d="M14,27V6.52A1.52,1.52,0,0,1,15.52,5h33A1.52,1.52,0,0,1,50,6.52V27h4V6.52A5.53,5.53,0,0,0,48.48,1h-33A5.53,5.53,0,0,0,10,6.52V27Z" transform="translate(-2 -1)"/><path class="cls-1" d="M14,37V57.48A1.52,1.52,0,0,0,15.52,59h33A1.52,1.52,0,0,0,50,57.48V37h4V57.48A5.53,5.53,0,0,1,48.48,63h-33A5.53,5.53,0,0,1,10,57.48V37Z" transform="translate(-2 -1)"/></svg>